# xmcd
#
# Track frame offsets: 
#        150
#        10520
#        28371
#        44816
#        60399
#        78044
#        91069
#        108042
#        118709
#        137405
#        151553
#        165623
#        181806
#        198586
#        221886
#
# Disc length: 3174 seconds
#
# Revision: 0
# Processed by: cddbd v1.5.2PL0 Copyright (c) Steve Scherf et al.
# Submitted via: ExactAudioCopy v1.3
#
DISCID=b60c640f
DTITLE=CDS制作 - TEST-CD-24A【中国民乐民歌】
DYEAR=2013
DGENRE=Acid
TTITLE0=康定情歌(琵琶笛子)
TTITLE1=好人一生平安(中胡)
TTITLE2=血染的风采(二胡)
TTITLE3=渴望(古筝)
TTITLE4=敖包相会(中胡)
TTITLE5=十五的月亮(古筝二胡)
TTITLE6=难忘今宵(古筝)
TTITLE7=满山红叶似彩霞(古筝笛子)
TTITLE8=人说山西好风光(琵琶)
TTITLE9=牧羊曲(古筝)
TTITLE10=走西口(二胡)
TTITLE11=天涯歌女(琵琶笛子)
TTITLE12=山丹丹花开红艳艳(二胡)
TTITLE13=美丽的草原我的家(马头琴)
TTITLE14=在那桃花盛开的地方(古筝二胡)
EXTD=
EXTT0=
EXTT1=
EXTT2=
EXTT3=
EXTT4=
EXTT5=
EXTT6=
EXTT7=
EXTT8=
EXTT9=
EXTT10=
EXTT11=
EXTT12=
EXTT13=
EXTT14=
PLAYORDER=
